<?xml version="1.0" encoding="UTF-8" standalone="no"?>
<!-- Created with Inkscape (http://www.inkscape.org/) -->

<svg
   xmlns:dc="http://purl.org/dc/elements/1.1/"
   xmlns:cc="http://creativecommons.org/ns#"
   xmlns:rdf="http://www.w3.org/1999/02/22-rdf-syntax-ns#"
   xmlns:svg="http://www.w3.org/2000/svg"
   xmlns="http://www.w3.org/2000/svg"
   xmlns:sodipodi="http://sodipodi.sourceforge.net/DTD/sodipodi-0.dtd"
   xmlns:inkscape="http://www.inkscape.org/namespaces/inkscape"
   width="273.47821"
   height="231.32312"
   viewBox="0 0 72.357777 61.204242"
   id="svg15895"
   version="1.1"
   inkscape:version="0.91+devel+osxmenu r12859"
   sodipodi:docname="responsive.svg">
  <defs
     id="defs15897" />
  <sodipodi:namedview
     id="base"
     pagecolor="#ffffff"
     bordercolor="#666666"
     borderopacity="1.0"
     inkscape:pageopacity="0.0"
     inkscape:pageshadow="2"
     inkscape:zoom="0.64809322"
     inkscape:cx="143.88195"
     inkscape:cy="110.71875"
     inkscape:document-units="mm"
     inkscape:current-layer="layer1"
     showgrid="false"
     inkscape:window-width="960"
     inkscape:window-height="600"
     inkscape:window-x="0"
     inkscape:window-y="23"
     inkscape:window-maximized="0"
     fit-margin-top="2"
     fit-margin-left="2"
     fit-margin-right="2"
     fit-margin-bottom="2" />
  <metadata
     id="metadata15900">
    <rdf:RDF>
      <cc:Work
         rdf:about="">
        <dc:format>image/svg+xml</dc:format>
        <dc:type
           rdf:resource="http://purl.org/dc/dcmitype/StillImage" />
        <dc:title></dc:title>
      </cc:Work>
    </rdf:RDF>
  </metadata>
  <g
     inkscape:label="Capa 1"
     inkscape:groupmode="layer"
     id="layer1"
     transform="translate(-49.999689,-95.552636)">
    <rect
       ry="4.0807199"
       y="96.622368"
       x="56.815414"
       height="39.011684"
       width="58.774101"
       id="rect10512"
       style="fill:none;stroke:#00cccc;stroke-width:1.08112955;stroke-opacity:1" />
    <rect
       y="100.6676"
       x="60.423584"
       height="29.363539"
       width="51.557697"
       id="rect10514"
       style="fill:none;stroke:#00cccc;stroke-width:1.03118074;stroke-opacity:1" />
    <path
       inkscape:connector-curvature="0"
       id="path10516"
       d="m 51.160618,136.16898 0,1.46978 c 0,1.78816 1.45124,3.24022 3.28038,3.24022 l 63.488762,0 c 1.82914,0 3.31452,-1.45206 3.31452,-3.24022 l 0,-1.46978 -70.083662,0 z"
       style="fill:none;stroke:#00cccc;stroke-width:1.08112955;stroke-linejoin:miter;stroke-miterlimit:60.90000153;stroke-dasharray:none;stroke-opacity:1" />
    <path
       inkscape:connector-curvature="0"
       id="path10518"
       d="m 50.528848,135.78517 5.6424,-3.63548 59.758152,0 5.89889,3.51012 z"
       style="fill:#00cccc;fill-opacity:1;stroke:none" />
    <ellipse
       ry="0.87753171"
       rx="0.89765471"
       cy="98.756325"
       cx="86.178574"
       id="path10520"
       style="fill:#00cccc;fill-opacity:1;stroke:none"
       d="m 87.076228,98.756325 a 0.89765471,0.87753171 0 0 1 -0.897654,0.877531 0.89765471,0.87753171 0 0 1 -0.897655,-0.877531 0.89765471,0.87753171 0 0 1 0.897655,-0.877532 0.89765471,0.87753171 0 0 1 0.897654,0.877532 z" />
    <rect
       ry="5.0511079"
       y="103.36821"
       x="73.587128"
       height="48.490639"
       width="32.861721"
       id="rect10527"
       style="fill:#ffffff;fill-opacity:1;stroke:#00cccc;stroke-width:1.08112967;stroke-miterlimit:4;stroke-dasharray:none;stroke-opacity:1" />
    <rect
       ry="0"
       y="108.40848"
       x="77.514023"
       height="36.581028"
       width="25.007973"
       id="rect10529"
       style="fill:#ffffff;fill-opacity:1;stroke:#00cccc;stroke-width:1.08112967;stroke-miterlimit:4;stroke-dasharray:none;stroke-opacity:1" />
    <rect
       y="147.49214"
       x="86.917969"
       height="1.8183988"
       width="6.200325"
       id="rect10531"
       style="fill:#00cccc;fill-opacity:1;stroke:none" />
    <ellipse
       ry="0.76085216"
       rx="0.77829951"
       cy="105.99403"
       cx="90.461975"
       id="path10533"
       style="fill:#00cccc;fill-opacity:1;stroke:none"
       d="m 91.240275,105.99403 a 0.77829951,0.76085216 0 0 1 -0.7783,0.76086 0.77829951,0.76085216 0 0 1 -0.778299,-0.76086 0.77829951,0.76085216 0 0 1 0.778299,-0.76085 0.77829951,0.76085216 0 0 1 0.7783,0.76085 z" />
    <rect
       style="fill:#ffffff;fill-opacity:1;stroke:#00cccc;stroke-width:1.08112967;stroke-miterlimit:4;stroke-dasharray:none;stroke-opacity:1"
       id="rect10537"
       width="19.385006"
       height="31.190004"
       x="65.017227"
       y="124.49715"
       ry="3.2489591" />
    <rect
       style="fill:#ffffff;fill-opacity:1;stroke:#00cccc;stroke-width:1.08112967;stroke-miterlimit:4;stroke-dasharray:none;stroke-opacity:1"
       id="rect10539"
       width="14.75211"
       height="23.529547"
       x="67.333633"
       y="127.73907"
       ry="0" />
    <rect
       style="fill:#00cccc;fill-opacity:1;stroke:none"
       id="rect10541"
       width="3.657548"
       height="1.1696253"
       x="72.880966"
       y="152.87823" />
    <rect
       style="color:#000000;display:inline;overflow:visible;visibility:visible;fill:#00cccc;fill-opacity:1;fill-rule:nonzero;stroke:none;stroke-width:1;marker:none;enable-background:accumulate"
       id="rect10758"
       width="11.444535"
       height="0.60983467"
       x="110.07701"
       y="135.51147" />
  </g>
</svg>
